<svg width="1316" height="577" viewBox="0 0 1316 577" fill="none" xmlns="http://www.w3.org/2000/svg">
<rect width="1316" height="577" fill="#E08105"/>
<path d="M146.8 360.8C136.4 360.8 127.2 358.667 119.2 354.4C111.333 350 105.133 343.6 100.6 335.2C96.2 326.8 94 316.4 94 304V272C94 253.467 98.9333 239.4 108.8 229.8C118.667 220.067 131.933 215.2 148.6 215.2C165.133 215.2 177.733 219.733 186.4 228.8C195.067 237.867 199.4 250 199.4 265.2V266.2H182.8V264.8C182.8 258.133 181.6 252.2 179.2 247C176.8 241.8 173.067 237.733 168 234.8C162.933 231.733 156.467 230.2 148.6 230.2C136.733 230.2 127.467 233.867 120.8 241.2C114.133 248.4 110.8 258.533 110.8 271.6V304.4C110.8 317.467 114.133 327.667 120.8 335C127.467 342.2 136.8 345.8 148.8 345.8C160.533 345.8 169.133 342.467 174.6 335.8C180.2 329.133 183 320.267 183 309.2V305.8H140.6V291.4H199.4V358H184.2V342.8H181.4C179.933 345.733 177.867 348.6 175.2 351.4C172.533 354.2 168.933 356.467 164.4 358.2C159.867 359.933 154 360.8 146.8 360.8ZM230.631 358V260.2H246.431V358H230.631ZM238.631 245C235.165 245 232.231 243.867 229.831 241.6C227.565 239.333 226.431 236.467 226.431 233C226.431 229.4 227.565 226.467 229.831 224.2C232.231 221.933 235.165 220.8 238.631 220.8C242.098 220.8 244.965 221.933 247.231 224.2C249.498 226.467 250.631 229.4 250.631 233C250.631 236.467 249.498 239.333 247.231 241.6C244.965 243.867 242.098 245 238.631 245ZM315.655 358C310.055 358 305.721 356.467 302.655 353.4C299.721 350.333 298.255 346.133 298.255 340.8V274H268.855V260.2H298.255V225.4H314.055V260.2H346.055V274H314.055V338.4C314.055 342.4 315.988 344.4 319.855 344.4H341.655V358H315.655ZM456.414 358C448.681 358 441.681 356.533 435.414 353.6C429.147 350.667 424.214 346.467 420.614 341C417.014 335.533 415.214 328.867 415.214 321C415.214 315.133 416.347 310 418.614 305.6C420.881 301.2 423.814 297.6 427.414 294.8C431.147 291.867 435.081 289.667 439.214 288.2V286C433.081 284.133 427.747 280.733 423.214 275.8C418.681 270.733 416.414 263.867 416.414 255.2C416.414 247.2 418.281 240.4 422.014 234.8C425.747 229.2 430.681 225 436.814 222.2C442.947 219.4 449.747 218 457.214 218H482.414V231.6H459.214C451.747 231.6 445.414 233.667 440.214 237.8C435.147 241.8 432.614 247.933 432.614 256.2C432.614 261.8 433.814 266.4 436.214 270C438.747 273.6 442.014 276.267 446.014 278C450.014 279.6 454.414 280.4 459.214 280.4H486.814V259H502.614V280.4H522.214V294.2H502.614V358H456.414ZM458.414 344.4H486.814V294.2H458.414C450.814 294.2 444.347 296.267 439.014 300.4C433.814 304.4 431.214 310.667 431.214 319.2C431.214 327.733 433.881 334.067 439.214 338.2C444.681 342.333 451.081 344.4 458.414 344.4ZM643.284 360.8C632.884 360.8 623.684 358.667 615.684 354.4C607.818 350 601.618 343.6 597.084 335.2C592.684 326.8 590.484 316.4 590.484 304V272C590.484 253.467 595.418 239.4 605.284 229.8C615.151 220.067 628.418 215.2 645.084 215.2C661.618 215.2 674.218 219.733 682.884 228.8C691.551 237.867 695.884 250 695.884 265.2V266.2H679.284V264.8C679.284 258.133 678.084 252.2 675.684 247C673.284 241.8 669.551 237.733 664.484 234.8C659.418 231.733 652.951 230.2 645.084 230.2C633.218 230.2 623.951 233.867 617.284 241.2C610.618 248.4 607.284 258.533 607.284 271.6V304.4C607.284 317.467 610.618 327.667 617.284 335C623.951 342.2 633.284 345.8 645.284 345.8C657.018 345.8 665.618 342.467 671.084 335.8C676.684 329.133 679.484 320.267 679.484 309.2V305.8H637.084V291.4H695.884V358H680.684V342.8H677.884C676.418 345.733 674.351 348.6 671.684 351.4C669.018 354.2 665.418 356.467 660.884 358.2C656.351 359.933 650.484 360.8 643.284 360.8ZM727.116 358V260.2H742.916V358H727.116ZM735.116 245C731.649 245 728.716 243.867 726.316 241.6C724.049 239.333 722.916 236.467 722.916 233C722.916 229.4 724.049 226.467 726.316 224.2C728.716 221.933 731.649 220.8 735.116 220.8C738.582 220.8 741.449 221.933 743.716 224.2C745.982 226.467 747.116 229.4 747.116 233C747.116 236.467 745.982 239.333 743.716 241.6C741.449 243.867 738.582 245 735.116 245ZM812.139 358C806.539 358 802.206 356.467 799.139 353.4C796.206 350.333 794.739 346.133 794.739 340.8V274H765.339V260.2H794.739V225.4H810.539V260.2H842.539V274H810.539V338.4C810.539 342.4 812.472 344.4 816.339 344.4H838.139V358H812.139ZM867.531 358V218H884.331V280.2H949.931V218H966.731V358H949.931V295.4H884.331V358H867.531ZM1036.78 359.8C1029.71 359.8 1023.18 358.267 1017.18 355.2C1011.31 352.133 1006.65 347.6 1003.18 341.6C999.848 335.467 998.181 328.067 998.181 319.4V260.2H1013.98V318.2C1013.98 327.933 1016.38 335 1021.18 339.4C1026.11 343.8 1032.71 346 1040.98 346C1050.31 346 1057.98 342.933 1063.98 336.8C1069.98 330.667 1072.98 321.533 1072.98 309.4V260.2H1088.78V358H1073.38V341.4H1070.58C1068.45 346.067 1064.78 350.333 1059.58 354.2C1054.38 357.933 1046.78 359.8 1036.78 359.8ZM1176.04 360.8C1165.91 360.8 1157.98 358.867 1152.24 355C1146.64 351.133 1142.58 346.733 1140.04 341.8H1137.24V358H1121.84V218H1137.64V275.6H1140.44C1142.04 272.533 1144.31 269.667 1147.24 267C1150.18 264.2 1153.98 261.933 1158.64 260.2C1163.44 258.333 1169.24 257.4 1176.04 257.4C1184.58 257.4 1192.31 259.467 1199.24 263.6C1206.31 267.6 1211.91 273.4 1216.04 281C1220.18 288.467 1222.24 297.4 1222.24 307.8V310.4C1222.24 320.8 1220.11 329.8 1215.84 337.4C1211.71 345 1206.11 350.8 1199.04 354.8C1192.11 358.8 1184.44 360.8 1176.04 360.8ZM1171.84 346.8C1181.98 346.8 1190.18 343.6 1196.44 337.2C1202.84 330.667 1206.04 321.6 1206.04 310V308.2C1206.04 296.6 1202.84 287.6 1196.44 281.2C1190.18 274.667 1181.98 271.4 1171.84 271.4C1161.84 271.4 1153.58 274.667 1147.04 281.2C1140.64 287.6 1137.44 296.6 1137.44 308.2V310C1137.44 321.6 1140.64 330.667 1147.04 337.2C1153.58 343.6 1161.84 346.8 1171.84 346.8Z" fill="white"/>
</svg>
