<svg width="1316" height="577" viewBox="0 0 1316 577" fill="none" xmlns="http://www.w3.org/2000/svg">
<rect width="1316" height="577" fill="#F0DB4F"/>
<path d="M424.6 464V452.4H433.8V405.6H424.6V394H453.4C462.8 394 469.933 396.4 474.8 401.2C479.733 405.933 482.2 413 482.2 422.4V435.6C482.2 445 479.733 452.1 474.8 456.9C469.933 461.633 462.8 464 453.4 464H424.6ZM447 452H453.6C458.933 452 462.833 450.6 465.3 447.8C467.767 445 469 441.067 469 436V422C469 416.867 467.767 412.933 465.3 410.2C462.833 407.4 458.933 406 453.6 406H447V452ZM516.202 465.4C511.268 465.4 506.902 464.367 503.102 462.3C499.368 460.167 496.435 457.2 494.302 453.4C492.235 449.533 491.202 445 491.202 439.8V438.6C491.202 433.4 492.235 428.9 494.302 425.1C496.368 421.233 499.268 418.267 503.002 416.2C506.735 414.067 511.068 413 516.002 413C520.868 413 525.102 414.1 528.702 416.3C532.302 418.433 535.102 421.433 537.102 425.3C539.102 429.1 540.102 433.533 540.102 438.6V442.9H504.002C504.135 446.3 505.402 449.067 507.802 451.2C510.202 453.333 513.135 454.4 516.602 454.4C520.135 454.4 522.735 453.633 524.402 452.1C526.068 450.567 527.335 448.867 528.202 447L538.502 452.4C537.568 454.133 536.202 456.033 534.402 458.1C532.668 460.1 530.335 461.833 527.402 463.3C524.468 464.7 520.735 465.4 516.202 465.4ZM504.102 433.5H527.302C527.035 430.633 525.868 428.333 523.802 426.6C521.802 424.867 519.168 424 515.902 424C512.502 424 509.802 424.867 507.802 426.6C505.802 428.333 504.568 430.633 504.102 433.5ZM573.916 465.4C568.983 465.4 564.616 464.367 560.816 462.3C557.083 460.167 554.15 457.2 552.016 453.4C549.95 449.533 548.916 445 548.916 439.8V438.6C548.916 433.4 549.95 428.9 552.016 425.1C554.083 421.233 556.983 418.267 560.716 416.2C564.45 414.067 568.783 413 573.716 413C578.583 413 582.816 414.1 586.416 416.3C590.016 418.433 592.816 421.433 594.816 425.3C596.816 429.1 597.816 433.533 597.816 438.6V442.9H561.716C561.85 446.3 563.116 449.067 565.516 451.2C567.916 453.333 570.85 454.4 574.316 454.4C577.85 454.4 580.45 453.633 582.116 452.1C583.783 450.567 585.05 448.867 585.916 447L596.216 452.4C595.283 454.133 593.916 456.033 592.116 458.1C590.383 460.1 588.05 461.833 585.116 463.3C582.183 464.7 578.45 465.4 573.916 465.4ZM561.816 433.5H585.016C584.75 430.633 583.583 428.333 581.516 426.6C579.516 424.867 576.883 424 573.616 424C570.216 424 567.516 424.867 565.516 426.6C563.516 428.333 562.283 430.633 561.816 433.5ZM609.031 484V414.4H621.431V420.4H623.231C624.365 418.467 626.131 416.767 628.531 415.3C630.931 413.767 634.365 413 638.831 413C642.831 413 646.531 414 649.931 416C653.331 417.933 656.065 420.8 658.131 424.6C660.198 428.4 661.231 433 661.231 438.4V440C661.231 445.4 660.198 450 658.131 453.8C656.065 457.6 653.331 460.5 649.931 462.5C646.531 464.433 642.831 465.4 638.831 465.4C635.831 465.4 633.298 465.033 631.231 464.3C629.231 463.633 627.598 462.767 626.331 461.7C625.131 460.567 624.165 459.433 623.431 458.3H621.631V484H609.031ZM635.031 454.4C638.965 454.4 642.198 453.167 644.731 450.7C647.331 448.167 648.631 444.5 648.631 439.7V438.7C648.631 433.9 647.331 430.267 644.731 427.8C642.131 425.267 638.898 424 635.031 424C631.165 424 627.931 425.267 625.331 427.8C622.731 430.267 621.431 433.9 621.431 438.7V439.7C621.431 444.5 622.731 448.167 625.331 450.7C627.931 453.167 631.165 454.4 635.031 454.4ZM695.791 464V452.4H704.991V405.6H695.791V394H724.591C733.991 394 741.125 396.4 745.991 401.2C750.925 405.933 753.391 413 753.391 422.4V435.6C753.391 445 750.925 452.1 745.991 456.9C741.125 461.633 733.991 464 724.591 464H695.791ZM718.191 452H724.791C730.125 452 734.025 450.6 736.491 447.8C738.958 445 740.191 441.067 740.191 436V422C740.191 416.867 738.958 412.933 736.491 410.2C734.025 407.4 730.125 406 724.791 406H718.191V452ZM764.793 464V414.4H777.393V464H764.793ZM771.093 408.6C768.826 408.6 766.893 407.867 765.293 406.4C763.76 404.933 762.993 403 762.993 400.6C762.993 398.2 763.76 396.267 765.293 394.8C766.893 393.333 768.826 392.6 771.093 392.6C773.426 392.6 775.36 393.333 776.893 394.8C778.426 396.267 779.193 398.2 779.193 400.6C779.193 403 778.426 404.933 776.893 406.4C775.36 407.867 773.426 408.6 771.093 408.6ZM801.755 464L785.955 414.4H799.355L810.855 454.8H812.655L824.155 414.4H837.555L821.755 464H801.755ZM867.276 465.4C862.342 465.4 857.976 464.367 854.176 462.3C850.442 460.167 847.509 457.2 845.376 453.4C843.309 449.533 842.276 445 842.276 439.8V438.6C842.276 433.4 843.309 428.9 845.376 425.1C847.442 421.233 850.342 418.267 854.076 416.2C857.809 414.067 862.142 413 867.076 413C871.942 413 876.176 414.1 879.776 416.3C883.376 418.433 886.176 421.433 888.176 425.3C890.176 429.1 891.176 433.533 891.176 438.6V442.9H855.076C855.209 446.3 856.476 449.067 858.876 451.2C861.276 453.333 864.209 454.4 867.676 454.4C871.209 454.4 873.809 453.633 875.476 452.1C877.142 450.567 878.409 448.867 879.276 447L889.576 452.4C888.642 454.133 887.276 456.033 885.476 458.1C883.742 460.1 881.409 461.833 878.476 463.3C875.542 464.7 871.809 465.4 867.276 465.4ZM855.176 433.5H878.376C878.109 430.633 876.942 428.333 874.876 426.6C872.876 424.867 870.242 424 866.976 424C863.576 424 860.876 424.867 858.876 426.6C856.876 428.333 855.642 430.633 855.176 433.5Z" fill="#000FB1"/>
<path d="M553.9 321.2C533.3 321.2 517 315.4 505 303.8C493.2 292.2 487.3 275.6 487.3 254V237.8H512.2V254C512.2 267 515.6 277.6 522.4 285.8C529.4 294 539.8 298.1 553.6 298.1C567.6 298.1 577.5 294.1 583.3 286.1C589.1 277.9 592 267.2 592 254V129.8H555.1V107H640V129.8H617.2V254C617.2 275.8 611.8 292.5 601 304.1C590.2 315.5 574.5 321.2 553.9 321.2ZM747.025 321.2C731.825 321.2 718.225 318.5 706.225 313.1C694.225 307.7 684.725 299.6 677.725 288.8C670.925 277.8 667.525 264.1 667.525 247.7V241.4H692.425V247.7C692.425 265.1 697.525 278.1 707.725 286.7C717.925 295.1 731.025 299.3 747.025 299.3C763.425 299.3 775.925 295.6 784.525 288.2C793.125 280.8 797.425 271.5 797.425 260.3C797.425 252.5 795.425 246.3 791.425 241.7C787.625 237.1 782.225 233.4 775.225 230.6C768.225 227.6 760.025 225 750.625 222.8L735.025 218.9C722.825 215.7 712.025 211.8 702.625 207.2C693.225 202.6 685.825 196.6 680.425 189.2C675.225 181.6 672.625 171.9 672.625 160.1C672.625 148.3 675.525 138.1 681.325 129.5C687.325 120.9 695.625 114.3 706.225 109.7C717.025 105.1 729.425 102.8 743.425 102.8C757.625 102.8 770.325 105.3 781.525 110.3C792.925 115.1 801.825 122.3 808.225 131.9C814.825 141.3 818.125 153.2 818.125 167.6V180.2H793.225V167.6C793.225 157.4 791.025 149.2 786.625 143C782.425 136.8 776.525 132.2 768.925 129.2C761.525 126.2 753.025 124.7 743.425 124.7C729.625 124.7 718.525 127.8 710.125 134C701.725 140 697.525 148.6 697.525 159.8C697.525 167.2 699.325 173.2 702.925 177.8C706.525 182.4 711.625 186.2 718.225 189.2C724.825 192 732.725 194.5 741.925 196.7L757.525 200.6C769.725 203.2 780.625 206.8 790.225 211.4C800.025 215.8 807.825 221.9 813.625 229.7C819.425 237.3 822.325 247.3 822.325 259.7C822.325 272.1 819.225 282.9 813.025 292.1C806.825 301.3 798.025 308.5 786.625 313.7C775.425 318.7 762.225 321.2 747.025 321.2Z" fill="black"/>
</svg>
