<svg width="1316" height="577" viewBox="0 0 1316 577" fill="none" xmlns="http://www.w3.org/2000/svg">
<rect width="1316" height="577" fill="#F0DB4F"/>
<path d="M555.9 396.2C535.3 396.2 519 390.4 507 378.8C495.2 367.2 489.3 350.6 489.3 329V312.8H514.2V329C514.2 342 517.6 352.6 524.4 360.8C531.4 369 541.8 373.1 555.6 373.1C569.6 373.1 579.5 369.1 585.3 361.1C591.1 352.9 594 342.2 594 329V204.8H557.1V182H642V204.8H619.2V329C619.2 350.8 613.8 367.5 603 379.1C592.2 390.5 576.5 396.2 555.9 396.2ZM749.025 396.2C733.825 396.2 720.225 393.5 708.225 388.1C696.225 382.7 686.725 374.6 679.725 363.8C672.925 352.8 669.525 339.1 669.525 322.7V316.4H694.425V322.7C694.425 340.1 699.525 353.1 709.725 361.7C719.925 370.1 733.025 374.3 749.025 374.3C765.425 374.3 777.925 370.6 786.525 363.2C795.125 355.8 799.425 346.5 799.425 335.3C799.425 327.5 797.425 321.3 793.425 316.7C789.625 312.1 784.225 308.4 777.225 305.6C770.225 302.6 762.025 300 752.625 297.8L737.025 293.9C724.825 290.7 714.025 286.8 704.625 282.2C695.225 277.6 687.825 271.6 682.425 264.2C677.225 256.6 674.625 246.9 674.625 235.1C674.625 223.3 677.525 213.1 683.325 204.5C689.325 195.9 697.625 189.3 708.225 184.7C719.025 180.1 731.425 177.8 745.425 177.8C759.625 177.8 772.325 180.3 783.525 185.3C794.925 190.1 803.825 197.3 810.225 206.9C816.825 216.3 820.125 228.2 820.125 242.6V255.2H795.225V242.6C795.225 232.4 793.025 224.2 788.625 218C784.425 211.8 778.525 207.2 770.925 204.2C763.525 201.2 755.025 199.7 745.425 199.7C731.625 199.7 720.525 202.8 712.125 209C703.725 215 699.525 223.6 699.525 234.8C699.525 242.2 701.325 248.2 704.925 252.8C708.525 257.4 713.625 261.2 720.225 264.2C726.825 267 734.725 269.5 743.925 271.7L759.525 275.6C771.725 278.2 782.625 281.8 792.225 286.4C802.025 290.8 809.825 296.9 815.625 304.7C821.425 312.3 824.325 322.3 824.325 334.7C824.325 347.1 821.225 357.9 815.025 367.1C808.825 376.3 800.025 383.5 788.625 388.7C777.425 393.7 764.225 396.2 749.025 396.2Z" fill="black"/>
</svg>
