<?xml version="1.0" standalone="no"?>
<!DOCTYPE svg PUBLIC "-//W3C//DTD SVG 20010904//EN"
 "http://www.w3.org/TR/2001/REC-SVG-20010904/DTD/svg10.dtd">
<svg version="1.0" xmlns="http://www.w3.org/2000/svg"
 width="500.000000pt" height="500.000000pt" viewBox="0 0 500.000000 500.000000"
 preserveAspectRatio="xMidYMid meet">

<g transform="translate(0.000000,500.000000) scale(0.100000,-0.100000)"
fill="#000000" stroke="none">
<path d="M3561 3146 c-40 -82 -79 -116 -132 -116 -22 0 -93 14 -157 31 -360
94 -776 128 -1167 94 -396 -34 -712 -112 -956 -235 -457 -230 -538 -546 -209
-813 88 -71 264 -164 390 -207 39 -14 77 -35 93 -52 26 -28 28 -34 22 -82 l-6
-51 23 40 c42 71 55 73 209 32 323 -87 579 -120 929 -120 344 1 600 33 903
114 351 94 627 266 723 449 26 49 29 65 29 150 0 82 -4 103 -26 150 -67 142
-261 288 -517 389 -123 48 -148 80 -138 176 4 36 11 76 16 90 17 45 3 26 -29
-39z m-617 -62 c195 -19 412 -56 455 -79 50 -25 73 -71 66 -128 -3 -26 -8 -54
-11 -62 -7 -17 -41 -30 -69 -26 -17 2 -16 -1 8 -25 26 -24 28 -31 23 -73 -5
-38 -4 -41 5 -21 17 41 40 60 72 60 l31 0 -22 20 c-24 23 -29 68 -11 103 48
92 112 101 233 32 299 -170 405 -376 304 -591 -51 -110 -220 -246 -418 -338
-454 -209 -1180 -280 -1805 -176 -209 35 -254 49 -271 83 -15 28 -15 43 2 127
3 14 -5 3 -19 -25 -44 -91 -73 -99 -177 -50 -105 51 -201 117 -270 186 -70 71
-103 126 -126 208 -15 54 -16 70 -5 124 17 84 53 151 120 220 257 270 844 442
1520 446 118 1 271 -6 365 -15z"/>
<path d="M2212 2667 c-24 -89 -59 -219 -78 -288 -19 -69 -34 -131 -34 -137 0
-8 33 -12 105 -12 111 0 156 11 187 47 22 24 90 269 82 295 -7 24 -43 32 -115
25 -66 -6 -66 -6 -48 67 10 40 8 48 -20 105 -17 33 -32 61 -34 61 -1 0 -22
-73 -45 -163z m158 -151 c0 -1 -4 -16 -9 -32 -6 -16 -19 -62 -31 -101 l-21
-73 -46 0 c-38 0 -45 3 -40 18 2 9 15 56 28 105 l23 87 48 0 c26 0 48 -2 48
-4z"/>
<path d="M2565 2598 c-10 -32 -46 -161 -65 -241 -29 -113 -26 -117 86 -117 46
0 84 -4 84 -8 0 -9 79 -37 85 -30 3 4 105 392 105 401 0 4 -22 7 -49 7 l-48 0
-18 -67 c-9 -38 -26 -103 -38 -145 l-20 -78 -49 0 c-42 0 -49 2 -44 18 3 9 19
69 36 132 17 63 33 121 35 128 3 8 -10 12 -46 12 -31 0 -51 -5 -54 -12z"/>
<path d="M3350 2600 c-51 -6 -66 -13 -80 -40 -8 -15 -4 -26 20 -53 16 -19 30
-37 30 -41 0 -3 -13 -6 -29 -6 -41 0 -66 -36 -87 -126 -18 -75 -18 -76 1 -91
16 -12 38 -14 100 -9 l80 6 30 -35 c17 -19 35 -35 40 -35 8 0 69 229 102 380
7 32 -15 45 -89 50 -40 3 -93 3 -118 0z m100 -84 c0 -3 -4 -16 -10 -30 -8 -22
-16 -26 -50 -26 -35 0 -40 3 -40 23 0 13 3 27 7 30 7 8 93 10 93 3z m-40 -147
c0 -43 -18 -59 -66 -59 l-46 0 7 33 c10 46 12 47 61 47 38 0 44 -3 44 -21z"/>
<path d="M1416 2565 c14 -19 23 -39 19 -45 -3 -5 -23 -73 -44 -150 l-38 -140
52 0 52 0 39 145 38 145 47 0 47 0 -29 -107 c-15 -60 -33 -124 -39 -143 -5
-19 -10 -36 -10 -38 0 -2 23 -2 52 0 l52 3 42 155 c49 177 49 174 30 193 -12
11 -49 15 -176 15 l-160 1 26 -34z"/>
<path d="M1841 2583 c-13 -11 -28 -47 -40 -93 -11 -41 -27 -101 -35 -133 -21
-77 -20 -104 3 -117 11 -5 65 -10 121 -10 93 0 100 1 91 18 -28 46 -43 57 -81
58 -45 0 -45 0 -36 49 l7 35 89 0 c105 0 110 4 137 111 16 62 16 63 -7 81 -32
26 -218 27 -249 1z m155 -85 c-3 -13 -6 -26 -6 -30 0 -5 -20 -8 -45 -8 -40 0
-45 2 -45 23 0 33 7 37 58 37 41 0 44 -2 38 -22z"/>
<path d="M2943 2585 c-22 -16 -43 -70 -43 -112 0 -17 19 -37 70 -74 90 -65 94
-89 16 -89 -47 0 -59 -5 -100 -37 l-46 -38 117 -3 c141 -3 159 5 182 88 l14
53 -29 26 c-17 14 -51 41 -77 58 -62 43 -62 63 1 63 41 1 52 6 87 40 l40 40
-105 0 c-79 0 -111 -4 -127 -15z"/>
</g>
</svg>
