<svg width="1316" height="577" viewBox="0 0 1316 577" fill="none" xmlns="http://www.w3.org/2000/svg">
<rect width="1316" height="577" fill="#159A00"/>
<path d="M477.9 396.2C462.7 396.2 449.1 393.5 437.1 388.1C425.1 382.7 415.6 374.6 408.6 363.8C401.8 352.8 398.4 339.1 398.4 322.7V316.4H423.3V322.7C423.3 340.1 428.4 353.1 438.6 361.7C448.8 370.1 461.9 374.3 477.9 374.3C494.3 374.3 506.8 370.6 515.4 363.2C524 355.8 528.3 346.5 528.3 335.3C528.3 327.5 526.3 321.3 522.3 316.7C518.5 312.1 513.1 308.4 506.1 305.6C499.1 302.6 490.9 300 481.5 297.8L465.9 293.9C453.7 290.7 442.9 286.8 433.5 282.2C424.1 277.6 416.7 271.6 411.3 264.2C406.1 256.6 403.5 246.9 403.5 235.1C403.5 223.3 406.4 213.1 412.2 204.5C418.2 195.9 426.5 189.3 437.1 184.7C447.9 180.1 460.3 177.8 474.3 177.8C488.5 177.8 501.2 180.3 512.4 185.3C523.8 190.1 532.7 197.3 539.1 206.9C545.7 216.3 549 228.2 549 242.6V255.2H524.1V242.6C524.1 232.4 521.9 224.2 517.5 218C513.3 211.8 507.4 207.2 499.8 204.2C492.4 201.2 483.9 199.7 474.3 199.7C460.5 199.7 449.4 202.8 441 209C432.6 215 428.4 223.6 428.4 234.8C428.4 242.2 430.2 248.2 433.8 252.8C437.4 257.4 442.5 261.2 449.1 264.2C455.7 267 463.6 269.5 472.8 271.7L488.4 275.6C500.6 278.2 511.5 281.8 521.1 286.4C530.9 290.8 538.7 296.9 544.5 304.7C550.3 312.3 553.2 322.3 553.2 334.7C553.2 347.1 550.1 357.9 543.9 367.1C537.7 376.3 528.9 383.5 517.5 388.7C506.3 393.7 493.1 396.2 477.9 396.2ZM668.184 396.2C643.184 396.2 623.184 389 608.184 374.6C593.384 360 585.984 338.8 585.984 311V263C585.984 235.2 593.384 214.1 608.184 199.7C623.184 185.1 643.184 177.8 668.184 177.8C693.384 177.8 713.384 185.1 728.184 199.7C743.184 214.1 750.684 235.2 750.684 263V311C750.684 338.8 743.184 360 728.184 374.6C713.384 389 693.384 396.2 668.184 396.2ZM668.184 373.7C686.384 373.7 700.484 368.3 710.484 357.5C720.484 346.5 725.484 331.3 725.484 311.9V262.1C725.484 242.7 720.484 227.6 710.484 216.8C700.484 205.8 686.384 200.3 668.184 200.3C650.184 200.3 636.184 205.8 626.184 216.8C616.184 227.6 611.184 242.7 611.184 262.1V311.9C611.184 331.3 616.184 346.5 626.184 357.5C636.184 368.3 650.184 373.7 668.184 373.7ZM680.484 440.6C673.084 440.6 667.084 438.3 662.484 433.7C658.084 429.3 655.884 423.2 655.884 415.4V392H680.484V410.9C680.484 416.9 683.284 419.9 688.884 419.9H708.684V440.6H680.484ZM792.668 392V182H817.868V369.2H924.068V392H792.668Z" fill="white"/>
</svg>
