<svg width="1316" height="577" viewBox="0 0 1316 577" fill="none" xmlns="http://www.w3.org/2000/svg">
<rect width="1316" height="577" fill="#3178C6"/>
<path d="M556.6 392V204.8H489.1V182H649.3V204.8H581.8V392H556.6ZM745.701 396.2C730.501 396.2 716.901 393.5 704.901 388.1C692.901 382.7 683.401 374.6 676.401 363.8C669.601 352.8 666.201 339.1 666.201 322.7V316.4H691.101V322.7C691.101 340.1 696.201 353.1 706.401 361.7C716.601 370.1 729.701 374.3 745.701 374.3C762.101 374.3 774.601 370.6 783.201 363.2C791.801 355.8 796.101 346.5 796.101 335.3C796.101 327.5 794.101 321.3 790.101 316.7C786.301 312.1 780.901 308.4 773.901 305.6C766.901 302.6 758.701 300 749.301 297.8L733.701 293.9C721.501 290.7 710.701 286.8 701.301 282.2C691.901 277.6 684.501 271.6 679.101 264.2C673.901 256.6 671.301 246.9 671.301 235.1C671.301 223.3 674.201 213.1 680.001 204.5C686.001 195.9 694.301 189.3 704.901 184.7C715.701 180.1 728.101 177.8 742.101 177.8C756.301 177.8 769.001 180.3 780.201 185.3C791.601 190.1 800.501 197.3 806.901 206.9C813.501 216.3 816.801 228.2 816.801 242.6V255.2H791.901V242.6C791.901 232.4 789.701 224.2 785.301 218C781.101 211.8 775.201 207.2 767.601 204.2C760.201 201.2 751.701 199.7 742.101 199.7C728.301 199.7 717.201 202.8 708.801 209C700.401 215 696.201 223.6 696.201 234.8C696.201 242.2 698.001 248.2 701.601 252.8C705.201 257.4 710.301 261.2 716.901 264.2C723.501 267 731.401 269.5 740.601 271.7L756.201 275.6C768.401 278.2 779.301 281.8 788.901 286.4C798.701 290.8 806.501 296.9 812.301 304.7C818.101 312.3 821.001 322.3 821.001 334.7C821.001 347.1 817.901 357.9 811.701 367.1C805.501 376.3 796.701 383.5 785.301 388.7C774.101 393.7 760.901 396.2 745.701 396.2Z" fill="white"/>
</svg>
